<svg xmlns="http://www.w3.org/2000/svg" viewBox="0 0 252.36 43.19"><defs><style>.cls-1{fill:#00a7e7;}.cls-2{fill:#fff;}</style></defs><title>logo</title><g id="Calque_2" data-name="Calque 2"><g id="Calque_1-2" data-name="Calque 1"><rect class="cls-1" width="252.36" height="43.19"/><path class="cls-2" d="M19.81,9c.38,0,3.45,0,5.33,1.2a7.61,7.61,0,0,1,3.33,6.49c0,3.3-1.95,7.8-8.66,7.8H13V35.85H10.47V9ZM13,11.25v11H19.1c2.85,0,6.75-.83,6.75-5.52,0-5.43-4.91-5.47-6.75-5.47Z"/><path class="cls-2" d="M31.59,21.71C32.34,17.66,34.85,16,40,16c7.35,0,7.39,3.68,7.39,8.26,0,.41-.08,4.65-.08,5.47,0,3.45.34,4.35,1.2,6.15H46a9.51,9.51,0,0,1-.71-3,10,10,0,0,1-7.92,3.41c-4.46,0-6.18-2.81-6.18-5.4a5.15,5.15,0,0,1,2.17-4.35c.71-.56,1.61-1.16,5.93-1.76a29.9,29.9,0,0,0,5.81-1.16V23c0-2.4,0-5.21-5.1-5.21s-5.7,2.88-6,4.31Zm13.46,3.68a42.83,42.83,0,0,1-6.19,1.46c-2.55.45-5.32.94-5.32,3.86a4,4,0,0,0,4.23,3.72,9,9,0,0,0,5.26-2c1.38-1.12,2-2.66,2-5.74Z"/><path class="cls-2" d="M64.1,21.45c-.52-1.73-1.12-3.6-4.95-3.6-2.85,0-4.54,1.16-4.54,3.15,0,1.8,1,2.78,5.78,3.79,3.94.82,6.75,2.14,6.75,5.55,0,3.15-2.33,6-7.58,6s-7.2-2.55-8-5.7l2.33-.41c.3,1.09,1.12,4.24,5.7,4.24,3.3,0,5.1-1.73,5.1-3.75s-1.43-2.89-5.7-3.79-6.83-2.25-6.83-5.48c0-1.91,1.32-5.44,6.9-5.44,3.83,0,6.19,1.13,7.2,5.14Z"/><path class="cls-2" d="M74.75,16.42h3.64v1.69H74.75V30.86c0,2.4.26,3.42,2.18,3.42a9.61,9.61,0,0,0,1.8-.27l.3,1.84a11.68,11.68,0,0,1-2.4.3c-4.2,0-4.13-2.81-4.13-5v-13H69.8V16.42h2.7v-5L74.75,10Z"/><path class="cls-2" d="M83.6,26.4c.08,4.69,2.22,8,6.53,8s5.51-3.49,6-4.73l2.25.38C97.67,32,96.13,36.3,90,36.3c-5.59,0-8.82-3.94-8.82-10.16S84.35,16,90.05,16c8.44,0,8.48,8.48,8.52,10.43Zm12.57-1.87c-.45-5.18-3.42-6.68-6.19-6.68-1.16,0-5.59.3-6.34,6.68Z"/><path class="cls-2" d="M115.86,35.85V33h-.08a6.8,6.8,0,0,1-6.19,3.34,6.6,6.6,0,0,1-5.06-2.06c-1.5-1.58-1.46-4-1.46-5.14V16.42h2.25v12a7.26,7.26,0,0,0,.75,4,4.54,4.54,0,0,0,3.75,1.83,6.09,6.09,0,0,0,5.36-3.48c.53-1.17.68-2.7.68-6V16.42h2.25V35.85Z"/><path class="cls-2" d="M126.09,16.42v3.9h.08c.41-1.42,1.39-4.35,4.46-4.35a5.89,5.89,0,0,1,3.45,1.17l-.86,2a6.53,6.53,0,0,0-2.62-.75c-.72,0-2.33,0-3.45,2.59a12.56,12.56,0,0,0-.68,3.27c-.11,1-.15,2.25-.15,2.73v8.89h-2.25V16.42Z"/><path class="cls-2" d="M156.32,35.85h-6.9V33h-.08a7.07,7.07,0,0,1-6.18,3.34c-5.33,0-8.18-4.65-8.18-10.46S138,16,143.19,16a7,7,0,0,1,5.67,2.33V9h7.46ZM145.48,21.49c-2.25,0-3,2.25-3,4.5,0,.94,0,4.8,3.15,4.8A3.23,3.23,0,0,0,148,29.74c.48-.6,1-1.5,1-3.68C148.93,24.6,148.44,21.49,145.48,21.49Z"/><path class="cls-2" d="M171.06,16c9,0,11.21,6.12,11.21,10.09,0,3.53-2,10.24-11.21,10.24-8.29,0-11.1-5.77-11.1-10.12C160,21.41,163,16,171.06,16Zm0,15.23c3.71,0,3.71-4.24,3.71-5.1,0-3.6-1.69-5-3.64-5-3.26,0-3.75,3.46-3.75,5.11C167.42,27.23,167.53,31.2,171.1,31.2Z"/><path class="cls-2" d="M192.85,16.42v3.15h.07a7.84,7.84,0,0,1,6.94-3.6c5.4,0,6.6,4,6.6,7.51V35.85H199V25.16c0-1,0-3.37-2.63-3.37-3,0-3,3.37-3,4.72v9.34h-7.46V16.42Z"/><path class="cls-2" d="M215.46,32.29v3.56h-3.22V32.29Z"/><path class="cls-2" d="M222.74,16.42V14.36c0-2.66.37-3.56,1-4.31a4.78,4.78,0,0,1,3.67-1.5,11,11,0,0,1,2.86.45l-.42,1.84a14.33,14.33,0,0,0-1.91-.19c-2.78,0-3,1.69-3,4v1.72h4.09v1.69H225V35.85h-2.25V18.11h-3.11V16.42Z"/><path class="cls-2" d="M234.48,16.42v3.9h.07C235,18.9,235.94,16,239,16a5.94,5.94,0,0,1,3.45,1.17l-.87,2a6.45,6.45,0,0,0-2.62-.75c-.71,0-2.33,0-3.45,2.59a12.56,12.56,0,0,0-.68,3.27c-.11,1-.15,2.25-.15,2.73v8.89h-2.25V16.42Z"/></g></g></svg>